<svg xmlns="http://www.w3.org/2000/svg"
     viewBox="0 0 512 512">
  <path fill="#aaa"
        d="m217 155c4 2 7 5 7 10v181c0 5-2 8-7 10-2 0.4-3 0.7-4 0.7-3 0-5-1-8-3l-55-56h-44c-3 0-6-1-8-3s-3-5-3-8v-64c0-3 1-6 3-8s5-3 8-3h44l55-56c4-3 7-4 12-2zm139 230c7 0 12-3 17-8 29-35 43-76 43-121s-14-86-43-121c-4-5-8-7-14-8s-11 0.9-16 5c-5 4-7 9-8 14-0.6 6 1 11 5 16 22 27 33 59 33 94s-11 67-33 94c-4 5-5 10-5 16 0.6 6 3 11 8 14 4 3 8 5 13 5zm-70-49c6 0 11-2 16-7 19-21 29-45 29-73s-10-52-29-73c-4-4-9-6-15-7-6-0.2-11 2-15 6-4 4-6 9-7 15-0.2 6 2 11 6 16 12 13 17 27 17 44s-6 31-17 44c-4 4-6 10-6 16 0.2 6 2 11 7 15 4 4 9 6 15 6z" />
</svg>