<svg xmlns="http://www.w3.org/2000/svg"
     viewBox="0 0 512 512">
  <path fill="#aaa"
        d="m296 271c7 5 16 11 26 17 12-1 24-2 36-2 30 0 49 5 55 15 3 5 4 10 0.6 16 0 0.2-0.1 0.4-0.3 0.6h-2v0.3c-1 8-9 12-22 12-10 0-22-2-36-6s-27-10-40-16c-46 5-86 14-122 26-32 54-57 82-75 82-3 0-6-0.7-9-2l-7-4c-0.2-0.2-0.8-0.7-2-2-2-2-3-6-2-11 2-8 8-18 17-28 10-11 23-21 41-30 3-2 5-1 7 2 0.4 0.4 0.6 0.8 0.6 1 11-18 22-38 33-61 14-28 25-55 32-82-5-17-8-34-9-50-1-16-0.7-29 2-40 2-8 7-12 13-12h7c5 0 8 2 11 5 4 4 5 11 3 21-0.4 1-0.8 2-1 2 0.2 0.6 0.3 1 0.3 2v9c-0.4 25-2 45-4 60 11 34 27 59 45 74zm-179 127c11-5 25-21 43-49-11 8-20 17-27 26-8 9-13 17-15 23zm123-285c-3 9-3 22-0.6 41 0.2-1 0.9-6 2-14 0-0.6 0.7-5 2-13 0.2-0.8 0.6-2 1-2-0.2-0.2-0.3-0.4-0.3-0.6 0-0.2-0.05-0.4-0.2-0.5-0.1-0.1-0.2-0.3-0.2-0.5-0.2-5-2-8-4-11 0 0.2-0.1 0.4-0.3 0.6v0.6zm-38 205c28-11 57-19 88-25-0.4-0.2-2-1-4-3-2-2-4-3-5-4-16-14-29-32-39-55-6 18-14 38-26 61-6 12-11 20-14 26zm200-5c-5-4-20-7-44-7 16 6 29 9 39 9 3 0 5-0.1 6-0.3 0-0.2-0.2-0.5-0.6-0.9z" />
</svg>