<svg xmlns="http://www.w3.org/2000/svg"
     viewBox="0 0 512 512">
  <path fill="#aaa"
        d="m381 164q5 5 9 14 4 9 4 16v206q0 7-5 12t-12 5h-240q-7 0-12-5-5-5-5-12v-286q0-7 5-12 5-5 12-5h160q7 0 16 4 9 4 14 9zm-79-44v67h67q-2-5-4-7l-56-56q-2-2-7-4zm69 273v-183h-74q-7 0-12-5t-5-12v-74h-137v274zm-183-154q0-2 2-4 2-2 4-2h126q2 0 4 2 2 2 2 4v11q0 2-2 4-2 2-4 2h-126q-2 0-4-2-2-2-2-4zm131 40q2 0 4 2 2 2 2 4v11q0 2-2 4-2 2-4 2h-126q-2 0-4-2-2-2-2-4v-11q0-2 2-4 2-2 4-2zm0 46q2 0 4 2 2 2 2 4v11q0 2-2 4-2 2-4 2h-126q-2 0-4-2-2-2-2-4v-11q0-2 2-4 2-2 4-2z" />
</svg>